<?xml version="1.0" encoding="UTF-8"?><svg id="Layer_1" xmlns="http://www.w3.org/2000/svg" viewBox="0 0 836.37 940.14"><defs><style>.cls-1{fill:#b3a9d4;}.cls-2{fill:#e9b4d7;}.cls-3{fill:#fdfbc4;}.cls-4{fill:#f2d3e3;}.cls-5{fill:#cdc7e3;}.cls-6{fill:#f6e7c8;}.cls-7{fill:#eec1a5;}.cls-8{fill:#fdfbc5;}.cls-9{fill:#99e8e7;}</style></defs><path id="Nabinagar" class="cls-7" d="M417.62,441.02c.89,0,1.78.02,2.7.03.68.01,1.35.02,2.05.04,1.18,2.35,1.03,3.47.84,6.06-.05.8-.11,1.59-.16,2.41-.12,1.68-.24,3.36-.37,5.05-.05.8-.11,1.59-.16,2.41-.05.73-.11,1.46-.16,2.21q-.13,1.94,1.01,3.85c.1,1.85.13,3.71.12,5.56,0,.99,0,1.98,0,3q-.13,2.43-1.13,3.43c.11,2.62.42,5.2.7,7.8.2,2.15.34,4.3.42,6.45q.09,6.36,3.45,11.49,1.21.62,2.44,1.25c.23-.74.47-1.48.71-2.24,1.52-3.24,3.12-4.68,5.91-6.88.82-.66,1.63-1.33,2.48-2.01,7.64-4.92,15.14-5.47,24.03-5.95,7.69-.56,13.74-2.56,19.93-7.23,3.45-1.98,5.21-2.1,9.04-1.36,3.28,1.16,4.85,2.9,6.89,5.67.73,2.31,1.41,4.65,2,7l2,1c1.26,6.51,1.2,11.78-1,18-.37,5.72-.16,11.23.81,16.88.9,7.5-2.76,14.89-5.97,21.52-1.17,3.63-1.05,7.15-.96,10.91q.01,1.11.03,2.24c.02,1.81.06,3.63.1,5.44h2c.33,1.65.66,3.3,1,5h2q-.02,1.26-.04,2.55c0,1.1-.02,2.19-.03,3.32q-.02,1.64-.04,3.3-.1,2.77,1.1,4.82c-.11,1.69-.24,3.38-.38,5.06,0,5.61,1.29,8.65,4.95,12.86,4.61,3.96,9.95,6.52,15.42,9.08-.54,4.58-1.78,7.85-4,11.88-2.55,4.9-3.79,8.63-4,14.12q-1.73.65-4,1-2.14-1-4.25-2.44-1.06-.71-2.14-1.43c-.53-.37-1.06-.75-1.61-1.13.08.76.17,1.53.25,2.31q-.25,2.69-1.75,4.38c-7.32,3.85-12.73,3.38-20.5,1.31.11,1.46.24,2.92.38,4.38.07.81.14,1.62.21,2.46q.24,2.37,2.41,4.16c.14,1.13.29,2.27.44,3.44.58,3.65.82,4.37,3.56,6.56.66.99,1.32,1.98,2,3q3.05,1.21,6,2v2c2.64-.33,5.28-.66,8-1v4c-.66.33-1.32.66-2,1-.68,2-1.34,4-2,6q-1.5,2.88-3,5h-2v6q-3,1-6.25,1.38c-4.06.68-7.13,1.67-10.75,3.62q-.71,1.27-1.44,2.56-1.56,2.44-3.48,3.1c-.73.15-1.46.31-2.21.46q-1.92.43-3.88.88c-.33.99-.66,1.98-1,3-7.6.39-13.84-.39-21-3-.03,1.92-.05,3.83-.06,5.75q-.02,1.6-.04,3.23c.08,2.55.35,4.59,1.1,7.02q-1.69.69-4,1c-.65-.55-1.3-1.1-1.98-1.67-4.9-2.16-8.83-.01-13.71,1.67-2.06.67-4.12,1.34-6.19,2.01-1.03.34-2.05.68-3.11,1.02-4.37,1.4-8.77,2.64-13.2,3.84q-1.1.3-2.23.61c-1.86.51-3.72,1.01-5.59,1.51-.76.25-1.52.5-2.3.76q-1.7.24-4.7-1.76-.69-3.62-1-7c-2.31-.33-4.62-.66-7-1,.36.7.72,1.4,1.09,2.12.46.91.93,1.82,1.41,2.76.46.9.93,1.81,1.41,2.74q1.09,2.38,1.09,4.38c-6.56,1.36-13.1,2.26-19.75,2.94-11.69,1.22-23.07,3.35-34.25,7.06q.03,1.95.06,3.94c.02,1.35,0,2.71-.06,4.06-1.73,1.73-3.92,1.13-6.22,1.14-.69,0-1.38,0-2.09-.01-.68,0-1.35,0-2.05.01q-5.21-.01-7.73-.76c-3.02-.6-5.21.44-8.09,1.43-.62.21-1.25.43-1.89.65-9.97,3.51-19.74,7.59-29.52,11.59-1.78.71-3.58,1.35-5.4,1.95q-1-1-1.06-3.56c.02-.8.04-1.61.06-2.44-.55.14-1.09.29-1.65.44-5.6,1.38-10.59,1.75-16.35,1.56-.06.63-.12,1.25-.18,1.9q-.13,1.23-.25,2.48c-.08.81-.16,1.62-.25,2.46q-.32,2.16-1.32,4.16h-9v4c-2.97,1.65-5.94,3.3-9,5-.07-.77-.14-1.53-.21-2.32-.33-3.52-.68-7.04-1.04-10.56q-.16-1.81-.33-3.65c-.69-6.68-1.77-12.38-4.6-18.49q-.81-1.98-.81-4.98h-2q-1.12-4.75,0-7c2.49-.81,5.01-1.41,7.55-2.02,2.97-1.19,3.97-2.15,5.45-4.98q.19-2.57-.25-5.19c-.11-.88-.22-1.76-.33-2.67q-.21-2.12-1.42-3.14c-.07-1.52-.08-3.04-.06-4.56,0-.83.02-1.65.03-2.5.01-.64.02-1.28.04-1.93-.99-.33-1.98-.66-3-1v-13q-4.61-1.41-7.19-.06c-4.14,1.56-8.44,1.75-12.81,1.06q-1.79-1.24-3-3c-1.29-7.44.22-16.66,3.06-23.59,1.24-3.2,1.07-6.02.94-9.41-3.27-1.09-5.81-1.2-9.25-1.25-1.1-.03-2.2-.05-3.33-.08-7.35.7-11.58,3.89-16.17,9.27q-.7.79-1.42,1.59c-2.41,2.73-4.7,5.52-6.83,8.47-3.87-.26-5.58-.6-8.44-3.31q-1.56-2.69-1.69-4.88c1.75-2.81,4.01-3.05,7.12-3.81h2c.89-2.68,1.14-4.25,1.12-7,0-.68,0-1.36,0-2.06q-.07-2.16-1.13-4.94c-.17-1.97-.27-3.96-.31-5.94-.04-1.04-.07-2.08-.11-3.15.52-3.56,1.69-4.67,4.43-6.91-.93-.21-1.86-.41-2.81-.62q-3.19-1.38-5.06-4.31-1.12-3.06-1.12-6.06c-.99-.33-1.98-.66-3-1-.66-3.63-1.32-7.26-2-11,1.55-.95,3.09-1.9,4.69-2.88,5.26-3.34,10.18-6.99,15.07-10.84,4.82-3.79,7.02-4.61,13.24-4.29,11.13,2.96,21.52,8.22,31.31,14.19,6.78,4.11,12.54,7.07,20.69,5.81,5.47-1.83,9.13-4.75,13-9,.71-.68,1.43-1.37,2.16-2.07,8.37-8.03,11.37-14.93,14.84-25.93.54-1.56,1.08-3.13,1.62-4.69.95-2.83,1.67-5.6,2.23-8.52,3-13.72,10.05-28.12,21.77-36.23,2.53-1.56,5-2.86,7.69-4.12,4.17-2.23,6.09-4.99,7.88-9.31,1.5-5.78,1.91-11.31,1.81-17.27,0-1.35,0-2.7,0-4.05,0-2.09,0-4.18-.06-6.27-.16-7.29-.18-13.21,5.13-18.76,3.96-3.32,8.03-5.77,12.74-7.84,4.43-2.13,7.89-3.86,10.12-8.44.35-1.15.7-2.31,1.06-3.5q13.91,5.47,18.69,10.88,1.58,1.8,3.31,3.12c4.45.08,7.97-1.17,12-3v-2c5.51-2.32,10.51-2.23,16.38-2.12q1.39.01,2.81.03c2.27.02,4.54.06,6.82.1-.01-.61-.02-1.23-.04-1.86,0-.81-.02-1.62-.03-2.45-.01-.8-.02-1.6-.04-2.43q.1-2.26,1.1-5.26c3.03-1.19,6.02-1.1,9.25-1.06Z"/><path id="Nasirnagar" class="cls-6" d="M813.37.08l1,2q2.58.69,5.56,1.12c1.01.17,2.02.34,3.07.51q1.17.18,2.37.37v4c1.98.66,3.96,1.32,6,2-.02,1.13-.04,2.27-.06,3.44q-.35,3.38,1.06,4.56c.04,2.33.04,4.67,0,7h4c-.14,1.94-.29,3.88-.44,5.81-.08,1.08-.16,2.16-.25,3.27q-.32,2.92-1.32,5.92l-3,2c-.72,3.92-1,7.46-1,11.44v2.56c-.33.33-.66.66-1,1-2.19-.09-4.38-.25-6.56-.44-1.2-.1-2.4-.2-3.63-.31-.93-.08-1.85-.17-2.81-.25.33,1.65.66,3.3,1,5-.63.04-1.25.07-1.9.11-.82.07-1.63.13-2.48.2-.81.06-1.62.12-2.46.18q-2.54.34-4.16,3.51c-.71,2.32-1.38,4.65-2,7-1.65-.33-3.3-.66-5-1-.33-.99-.66-1.98-1-3-.66-.33-1.32-.66-2-1l-3,15h-10l-1-8c-1.98.66-3.96,1.32-6,2-.36,1.79-.71,3.58-1.06,5.38-.2,1-.39,2-.6,3.02q-.58,2.58.66,4.6c-1.32-.33-2.64-.66-4-1-.19.95-.37,1.9-.56,2.88q-1.44,3.12-5.06,4.5-1.67.31-3.38.62v2h2v6c.72.1,1.44.21,2.19.31q2.81.69,5.19,2.31c3.67,1.92,5.62,1.31,9.62.38,2.35-.78,4.67-1.6,6.98-2.48q2.02-.52,5.02.48v-6q1.77-.65,4-1,1.92,1,3.75,2.44c.61.47,1.23.95,1.86,1.43.46.37.92.75,1.39,1.13-.33-1.98-.66-3.96-1-6q5.94-.99,12-2v12h2c.03,2.23.05,4.46.06,6.69.01,1.24.02,2.48.04,3.76-.08,3.01-.39,5.63-1.1,8.55h-2c-.33-1.32-.66-2.64-1-4h-2c-.33-1.65-.66-3.3-1-5-1.44-.08-2.87-.14-4.31-.19-.8-.03-1.6-.07-2.43-.11-2.77.36-3.45,1.26-5.26,3.29h-2c-.33.99-.66,1.98-1,3h-20q-.45,5.48,1,8h-11c-.19,2.98-.38,5.96-.56,8.94-.06.85-.11,1.7-.17,2.58-.05.81-.1,1.62-.15,2.45q-.07,1.12-.14,2.27-.18,1.79,1.02,2.77c.1,1.5.13,3,.12,4.5,0,.81,0,1.63,0,2.47q-.13,2.03-1.13,3.03c-.23,1.35-.41,2.7-.56,4.06-.14,1.3-.29,2.6-.44,3.94-4.03.18-6.48-.06-10-2,.01,1.07.02,2.14.04,3.25,0,1.4.02,2.79.03,4.19,0,.71.02,1.41.03,2.14,0,1.81-.04,3.61-.09,5.42q-1,1-2.85,1.1c-2.05-.03-4.1-.07-6.15-.1v8h13q2.44,20.14,0,28c.85-.04,1.69-.08,2.56-.12,3.78.14,6.81,1.06,10.44,2.12,1.41.19,2.83.36,4.25.5q3.75.5,6.75,2.5c2.32.39,4.66.73,7,1q-.25,1.88-1,4c-2.43,1.82-3.6,2.05-6.62,1.69q-2.38-.69-4.38-1.69v9c-1.09-.33-2.19-.66-3.31-1-5.22-1.33-10.34-1.18-15.69-1-.84,2.92-1.12,5.51-1.1,8.55q0,1.27,0,2.56c0,.87.02,1.75.03,2.64q0,1.33.01,2.69c.01,2.19.03,4.37.05,6.56-.66.33-1.32.66-2,1-.1.78-.21,1.57-.31,2.38q-.69,2.62-3.25,4.44c-.8.39-1.61.78-2.44,1.19.58,2.39,1.22,4.67,2,7h-2c.33,1.98.66,3.96,1,6-.85.35-1.69.7-2.56,1.06-3.63,2.05-5.91,4.31-8.77,7.28-2.05,2.03-4.03,3.48-6.67,4.66q-3-1-4.63-3.9c-2.2-5.6-2.15-11.6-2.46-17.54-.38-5.39-.8-8.68-4.92-12.56-.87-.68-1.73-1.36-2.62-2.06q-2.38-1.94-3.12-3.99-1.15-2.27-4.15-2.67c-1.15-.11-2.29-.22-3.48-.34-4.68-.47-6.95-1.1-10.62-3.94q-2.35-.4-4.81-.25-1.31.04-2.64.08c-3.23.22-6.36.62-9.55,1.17-.99-1.65-1.98-3.3-3-5-3,.42-5.57.79-8.31,2.12-3.48,1.13-6.13.59-9.7-.03-.66-.03-1.31-.06-1.99-.09-2.57,2.57-2.36,3.74-2.44,7.31.07,4.16.17,5.33,2.75,8.75,1.87,1.35,3.77,2.66,5.69,3.94-.33.99-.66,1.98-1,3-2.61,1.24-5.26,2.09-8,3q-1.12,2.34-2,5c-.65,1.34-1.31,2.68-2,4-7.74.88-12.5-1.99-19-6v-2c-5.28-2.08-10.4-2.58-16-3-.16-1-.32-2-.48-3.04-1.27-7.4-2.49-13.15-7.52-18.96-1.12-3.35-.85-5.39-.56-8.88q.17-4.35-2.04-7.85-2.08-1.25-4.32-2.27-2.08-1-4.52-3.5c-2.38-2.32-4.22-3.49-7.12-5-3.76-2.03-6.46-3.55-8.44-7.5.07-2.33.38-4.54.76-6.84.32-2.87-.3-4.69-1.76-7.16-3.65-1.83-7.99-1.29-12-1q-1.58.62-3.19,1.25c-.93.25-1.86.49-2.81.75-1.64-.99-3.28-1.98-4.87-3.05-3.67-1.63-7.43-1.02-11.36-.7q-2.77-.25-5.01-2.12c-.58-.7-1.16-1.4-1.76-2.12l-2-2c.33-.66.66-1.32,1-2-.99-.33-1.98-.66-3-1q-.12-3.38,0-7l2-2c.71-1.65,1.38-3.32,2-5h2v-7c1.98-.33,3.96-.66,6-1,.33-2.64.66-5.28,1-8,.99-.33,1.98-.66,3-1v-2c-2.31-.33-4.62-.66-7-1-.66.99-1.32,1.98-2,3q-3.22.33-7.06.25c-1.27-.02-2.54-.03-3.85-.05q-3.09-.2-4.09-1.2c-2.19-.07-4.38-.08-6.56-.06q-1.8.01-3.63.03-1.39.02-2.81.04c-.66-2.64-1.32-5.28-2-8-2.97-.66-5.94-1.32-9-2v-3h-2v-2c-1.98-.66-3.96-1.32-6-2q-.99,2.97-2,6h-3c.66-2.97,1.32-5.94,2-9-2.97.99-5.94,1.98-9,3,.13.74.27,1.48.4,2.24.91,5.24,1.77,10.48,2.41,15.76.11.87.22,1.73.33,2.62-.18,2.96-1.19,4.2-3.14,6.38-.37-.49-.74-.99-1.12-1.5-2.62-2.1-4.61-1.72-7.88-1.5q-.99-1.98-2-4-1.14.15-2.31.31-2.69-.31-4.44-2.44c-1.3-2.99-1.87-5.64-2.25-8.88-1.42-.2-2.83-.38-4.25-.56-.79-.1-1.58-.21-2.39-.32-2.39-.12-4.06.29-6.36.88-2.71-.15-5.31-.6-8-1,.17-.58.33-1.15.5-1.75q.64-2.52.5-6.25c-1.66-1.66-3.73-1.4-6-1.62-.91-.1-1.82-.19-2.75-.29-.74-.03-1.48-.06-2.25-.09-.33.33-.66.66-1,1-1.53-.09-3.05-.25-4.56-.44-.83-.1-1.65-.2-2.5-.31-.64-.08-1.28-.17-1.93-.25-.33-.99-.66-1.98-1-3-1.65-.71-3.32-1.37-5-2-1.36-.96-2.71-1.95-4-3,1.53-3.4,3.55-6.03,5.88-8.94,6.2-8.13,11.01-17.05,15.94-25.98,2.88-5.05,4.72-6,10.17-7.49,5.61-1.09,11.2-.98,16.89-.9q1.91.02,3.85.03c7.55.11,15.07.39,22.59,1.09q1.16.1,2.35.21c5.19.58,9.49,2.08,14.34,3.98q3.33.25,6,0c.42-4.34-.15-7.51-2.46-11.27-2.58-2.9-5.81-4.56-9.2-6.38-2.22-1.29-3.75-2.35-5.34-4.36-.96-6.84.92-12.43,5-18,5-4.36,9.22-4.65,15.56-4.75.92-.03,1.84-.06,2.79-.09,6.41-.19,12.81-.15,19.21-.1q28.25.4,53.23-10.68c.46-.56.92-1.12,1.39-1.7.47-.55.94-1.11,1.42-1.68q1.55-2.1,2.71-5.1c2.1-3.64,3.41-4.02,7.37-5.23,6.51-2.23,12.19-5.25,18.11-8.74q5.03-2.95,7.21-2.95c3.31,4.09,4.5,6.74,4,12,.59.24,1.19.48,1.8.73,2.63,1.52,3.73,3.1,5.45,5.58,2.95,3.97,5.63,6.04,9.93,8.36,2.21,1.61,2.9,3.12,4.07,5.57q1.03,2.14,2.75,3.75c4.02.99,7.88,1.11,12,1v4q2.92.25,6,0c.66-.99,1.32-1.98,2-3,2.87.57,3.86.86,6,3q2.68.02,5.62-.38c1-.11,2.01-.22,3.04-.34.77-.1,1.54-.19,2.34-.29-.33.99-.66,1.98-1,3h-3v2q2.94-.18,6-1,1.44-1.95,2-4h3c.23.8.45,1.61.69,2.44.43.85.87,1.69,1.31,2.56q2.55.89,5,1v-2l8,2v2c.63.03,1.25.05,1.9.08q1.23.09,2.48.17c.81.05,1.62.09,2.46.14q2.16.61,3.45,2.66.35.97.71,1.95c.91-.21,1.82-.41,2.75-.62,3.53-.41,4.28,0,7.25,1.62q2.67.17,5,0v3q1.37-.03,2.77-.07c1.19-.02,2.38-.04,3.6-.05,1.18-.02,2.37-.05,3.59-.07q3.04.2,5.04,2.2v-4h2c.33,1.65.66,3.3,1,5h2v-5c.66-.33,1.32-.66,2-1v5c.66-.5,1.32-.99,2-1.5,4.53-2.27,8.43-1.9,13.44-1.12q1.56.62,2.56,2.62.75-3.47,1-7h-3v-2c-1.32.33-2.64.66-4,1-1.2-3.6-.99-5.03.31-8.69q1.69-3.31,3.69-5.31.02-2.22-.38-4.62c-.11-.82-.22-1.63-.34-2.48q-.14-.94-.29-1.9c.99-.66,1.98-1.32,3-2q.73-2.56,1-5h2v-2c.78-.35,1.57-.7,2.38-1.06,3.53-2.61,3.64-4.89,4.36-9.07q.13-.92.26-1.86c.64-.11,1.28-.23,1.93-.35.68-.22,1.36-.43,2.07-.65.72-1.65,1.38-3.31,2-5q1.49-.99,3-2c.33-.99.66-1.98,1-3,5.62-2.66,9.83-3.33,16-3Z"/><path id="Bijoynagar" class="cls-2" d="M753.37,259.08l1,4q1.55-.4,3.12-.81,4.37-.21,7.12,2.25,1.36,1.27,2.75,2.56h3c.21-.64.42-1.29.63-1.95q1.37-2.05,4.05-2.7c1.05-.06,2.11-.11,3.2-.17q1.57-.1,3.18-.21c2.56.02,4.53.25,6.95,1.02.03,1.65.05,3.29.06,4.94.01.92.02,1.83.04,2.78q-.1,2.29-1.1,3.29c-1.67.04-3.33.04-5,0,.03.98.07,1.95.11,2.96.03,1.27.05,2.54.08,3.86.03,1.26.07,2.53.11,3.83q-.29,3.36-1.68,5.3-1.61,1.05-3.61,1.05l1,12h2c-.35.91-.7,1.81-1.06,2.75-.9,3.13-1.07,4.3.06,7.25l1-2q8.24-.48,11.19,1.38c.6.54,1.2,1.07,1.81,1.62,1.99.69,3.99,1.36,6,2,1.98.99,3.96,1.98,6,3v18c1.65.66,3.3,1.32,5,2,.66.66,1.32,1.32,2,2q2.07.64,4,1c-.02,1.07-.04,2.14-.06,3.25.05,2.94.27,4.99,1.06,7.75,0,5.01-.72,8.14-4,12-2.17-.51-4-1-6-2v2h-3v2c.95-.04,1.9-.08,2.88-.12q3.12.12,5.12,2.12-.02,2.6-.38,5.62c-.11,1-.22,2.01-.34,3.04-.1.77-.19,1.54-.29,2.34-1.32.33-2.64.66-4,1v2h-2v4h-4c-.99.33-1.98.66-3,1v3h-2c-.33.99-.66,1.98-1,3h-2c.19.54.37,1.07.56,1.62.55,2.99.04,5.41-.56,8.38.76-.04,1.53-.08,2.31-.12q2.69.12,5.69,2.12v2h2c3.14,9.11-1.3,20.85-5.07,29.1-1.4,4.4-.35,7.63,1.07,11.9q-1.33.4-2.69.81-3.28,1.03-5.75,2.81c-3.31,1.78-5.86,1.59-9.56,1.38-.13-.78-.27-1.56-.4-2.37-.18-1.01-.35-2.02-.54-3.07-.17-1.01-.35-2.02-.53-3.06q-.28-2.43-1.54-3.5c-.14-2.67-.04-5.32,0-8-1.69,2.6-3.38,5.21-5.06,7.81-.47.72-.93,1.44-1.41,2.18-.98,1.52-1.96,3.04-2.94,4.56-1.09,1.69-2.21,3.36-3.34,5.02-4.55,6.81-7.6,13.65-10.31,21.36-.41,1.11-.83,2.22-1.26,3.36-.38,1.07-.76,2.13-1.15,3.23-.34.96-.69,1.91-1.04,2.9q-.7,2.55.29,4.82c1.55,2.23,3.37,3.39,5.6,4.94,6.57,5.58,7.64,13.6,8.62,21.81q-.47,2.24-1,4c-.99-.33-1.98-.66-3-1-2-.09-4-.13-6-.12-1.05,0-2.1,0-3.19,0q-2.89,0-5.81,1.13c-5.68.3-10.77-.41-16.34-1.49-6.91-1.33-13.64-1.64-20.66-1.51.58.22,1.16.44,1.76.67,6.44,2.93,9.42,6.54,12.26,12.99,1.66,5.64,1.87,10.73-.02,16.34-2.35,2.7-4.81,4.41-8,6-.66-.33-1.32-.66-2-1-1.5.42-2.97.91-4.44,1.44-5.5,1.74-10.82,2.3-16.56,1.56-.99-.66-1.98-1.32-3-2-2.98.22-4.53.6-6.81,2.56-.39.47-.78.95-1.19,1.44q-4.75-1.88-7-3c.17.64.33,1.28.5,1.94.86,5.25,1.32,10.09-.75,15.06-1.99,2.28-2.77,2.75-5.75,3q-1.86-1.29-3.75-3.19c-3.28-3.09-6.19-4.99-10.39-6.6-2.93-1.91-4.2-4.16-5.86-7.21-.71-3.82-1-7.57-1.31-11.44-1.03-5.36-3.28-7.57-7.68-10.66-1.1-.65-2.19-1.3-3.32-1.96q-.87-.52-1.75-1.05c-2.97-1.78-5.98-3.43-9.06-5.01-3.57-2.33-4.47-3.87-5.88-7.88-.23-1.65-.46-3.29-.69-4.94-1.09-6.1-4.48-8.56-9.31-12.06-3.83-3.04-6.95-6.16-10-10-.8-.58-1.61-1.15-2.44-1.75-4.47-3.93-7.15-8.31-7.98-14.26-.16-6.19.85-10.34,3.42-15.99.82-3.7,1.32-7.21,1-11q-2.25-3.09-5-5v-2c-1.66-.38-3.32-.71-5-1l-1,1c-2.19.07-4.38.08-6.56.06q-1.8-.01-3.63-.03c-.93-.01-1.85-.02-2.81-.04-.1-.64-.21-1.27-.31-1.93-.23-.68-.45-1.37-.69-2.07q-2.96-1.24-6-2c-2.78-2.78-1.85-10.24-2-14,.13-5.59,1.73-9.97,4-15v-3c-2.91-1.26-4.8-2-8-2q-.99,1.98-2,4c-3.63-.66-7.26-1.32-11-2,2.72-6.38,6.28-10.8,11.07-15.8q2.12-2.13,2.93-5.2c5.63,1.6,10.21,3.62,15.07,6.86,2.87,1.7,5.69,2.4,8.93,3.14.33,1.32.66,2.64,1,4h3c.66-1.32,1.32-2.64,2-4h2c.08-1.11.16-2.23.25-3.38q.75-3.62,2.81-5.06c.64-.19,1.28-.37,1.94-.56q-.49,1.49-1,3c3.62-.62,4.17-1.17,7-4,3.3,1.32,6.6,2.64,10,4v-2q5.75-1,8-1c-.66,1.65-1.32,3.3-2,5,.99.33,1.98.66,3,1,1.79,1.79,1.63,4.51,2,6.94q.56,4.17,2,8.06c2.34-5.86,2.4-11.34,2.57-17.54.15-4.02.32-6.93,2.43-10.46.22-3.54.04-6.6-1-10h2v-2h2v-2c.76-.15,1.52-.29,2.3-.45,3.01-.68,5.83-1.4,8.7-2.55,1.07-1.96,2.07-3.97,3-6,2.48-1.43,5.03-2.54,7.64-3.7q2.69-1.25,4.55-4.61c.6-.89,1.2-1.77,1.81-2.69q3.75-.38,7,0c.33.66.66,1.32,1,2,8.29-3.14,17.31-8.05,23-15q.67-3.3,0-6h2q-.13-1.14-.26-2.31.26-2.69,2.05-4.31,1.19-.68,2.39-1.38c7.89-4.87,10.93-9.35,13.81-18,.09-1.5.13-3,.12-4.5,0-.77,0-1.55,0-2.34q-.05-2.34-1.13-5.16c.83.05,1.66.09,2.52.14,1.09.04,2.17.07,3.29.11,1.08.05,2.16.09,3.27.14.96-.13,1.93-.26,2.92-.39l3-4q1.98,4.95,4,10c4.65-2.32,8.45-4.32,12-8.12,2.51-2.62,4.27-3.66,8-3.88l-1-6h2c-.52-.58-1.03-1.15-1.56-1.75q-1.44-2.25-1.44-4.38c1.42-2.67,3.19-3.01,6-3.88v-5Z"/><path id="Sarail" class="cls-5" d="M410.24,125.08c1.65.95,3.29,1.91,4.94,2.88.92.53,1.83,1.07,2.78,1.62q2.29,1.51,3.29,3.51,1.99.51,4.31.69c.78.09,1.56.17,2.36.26,2.33.05,4.08-.36,6.32-.95q6.31.44,8.94,2.56c.35.47.7.95,1.06,1.44q-.46.9-.94,1.81-1.16,2.28-2.06,5.19c1.62.03,3.25.05,4.88.06.9.01,1.81.02,2.74.04q2.4.06,4.38-1.1c4.05-.26,5.54-.3,9,2,1.08,2.56,1.9,5.14,2.74,7.79.42.73.83,1.46,1.26,2.21q2.49.66,5,1,.99,1.49,2,3h2.94q3.06,0,4.94,1.5c.37.49.74.99,1.12,1.5,2.65-4.84,1.85-8.78,1-14q-.26-1.61-.52-3.25c-.48-2.92-.97-5.84-1.48-8.75,3.6-2.3,5.68-3.37,10-3q-.88,6.75-2,9c.99-.33,1.98-.66,3-1q1.22-2.5,2-5c1.98.66,3.96,1.32,6,2v2h2v3c1.09-.04,2.19-.08,3.31-.12q3.69.12,6.69,2.12c.7,2.66.78,5.24,1,8,.93-.08,1.85-.17,2.81-.25,1.2-.1,2.4-.2,3.63-.31,1.19-.1,2.39-.21,3.62-.32.97-.04,1.94-.08,2.94-.12.33.33.66.66,1,1,2.31.15,4.62.22,6.94.25,1.27.03,2.53.05,3.84.08,1.06-.11,2.13-.22,3.22-.33q.99-1.49,2-3c2.31.33,4.62.66,7,1v4h-3q.03,1.95.06,3.94c.02,1.35,0,2.71-.06,4.06q-1,1-4.06,1.06c-.97-.02-1.94-.04-2.94-.06v7q-.99.49-2,1c-1.98,4.43-3.13,8.14-3,13l2,1c.33.99.66,1.98,1,3q1.64,2.29,4,4,2.81.33,5.81,0c4.11-.17,6.63-.2,10.06,2.12,1.03.62,2.06,1.24,3.12,1.88q2.91-.72,6-2c4.58-.54,8.55-.88,12.56,1.56,1.89,3.2,2.24,5.74,2.44,9.44-.23.87-.45,1.73-.69,2.62q-.57,2.51,1.12,4.94c2.73,2.6,5.2,3.9,8.59,5.46,2.67,1.31,4.81,2.95,6.97,4.97v2c.74.25,1.49.5,2.25.75,3.27,1.49,4.76,2.22,6.75,5.25.12,2.77,0,5.49-.11,8.25.17,4.21,1.77,6.27,4.11,9.75,3.05,6.24,4.13,11.06,4,18,.65-.03,1.3-.07,1.98-.11,5.51-.17,9.22.07,14.02,3.11v2c.7.27,1.4.54,2.12.81q2.88,1.19,5.69,2.81c4.05,1.75,6.81,1.6,11.19,1.38.24-.54.48-1.09.73-1.64q3.43-7.32,7.27-9.36c1.33-.34,2.66-.68,4-1l1-2q-1.11-.34-2.25-.69c-3.56-1.7-4.83-2.83-6.75-6.31q-1.2-9.12,1.19-12.87c2.59-1.62,4.21-1.12,7.18-.63,4.72.6,6.67.29,10.62-2.5q2.69,0,5,1,1.31,2.56,2,5c.95-.33,1.9-.66,2.88-1,4.6-1.3,9.39-1.74,14.12-1,.63.49,1.25.97,1.9,1.47,2.82,2.05,5.09,2.01,8.54,2.28q6.04.8,8.31,2.75,1.19,1.81,2.2,3.71,1.11,2.15,4.23,4.16c4.5,4.2,4.58,8.55,5.03,14.48.13,3.99-.04,7.47-1.03,11.34-3.78,3.13-8.49,2.17-13.19,1.81.33.66.66,1.32,1,2,.86,7.86-.78,14.57-5.06,21.19-2.99,3.33-6.89,5.21-10.83,7.22q-2.36,1.45-2.91,4.27-.1,1.15-.2,2.32h-2c.35.82.7,1.65,1.06,2.5q-.06,3.5-1.65,5.47c-6.61,6.03-14.04,10.85-22.41,14.03-.33-.99-.66-1.98-1-3h-7c-.19.72-.37,1.44-.56,2.19-2.35,4.59-6.36,7.1-11.19,8.75q-2.57.92-3.62,4.06-1.62,3-5.06,4.38-3.56.62-7.56.62v2h-2v2h-2c.33.54.66,1.07,1,1.62,1.26,2.99,1.27,5.15,1,8.38-.33.54-.65,1.08-.99,1.64-1.82,4.26-1.41,8.97-1.49,13.54-.18,5.31-1.14,9.06-3.52,13.82-3.58-5.36-3.41-10.7-3-17,.5-2.44,1.18-4.64,2-7h-5l-1-2h-2c-.12-.64-.25-1.28-.38-1.94-.21-.68-.41-1.36-.62-2.06l-2-1c-.73-2.31-1.4-4.65-2-7h-2v-3h-3c-2.15-3.86-3.39-6.55-3-11h-3c.16-.49.33-.99.5-1.5,1.23-6.14.52-10.7-1.5-16.5-.04-2-.04-4,0-6-.95.01-1.91.02-2.89.04q-1.88.01-3.8.03c-1.24.01-2.48.02-3.76.04q-3.55-.1-6.15-.66c-2.96-.54-5.21-.15-8.15.43-.96.18-1.93.37-2.92.55q-2.27.34-3.33,1.57c-4.86.59-8.58-1.2-13-3v-2c-1.92-.03-3.83-.05-5.75-.06-1.07-.01-2.13-.02-3.23-.04-2.55.08-4.59.35-7.02,1.1.33,2.31.66,4.62,1,7h-4c-.66,2.97-1.32,5.94-2,9h-2q-1.06-2.38-2-5l1-2c-.8-.14-1.61-.29-2.44-.44q-2.56-.56-3.56-1.56c-1.77.04-3.55.16-5.31.31-.97.08-1.93.16-2.93.24-2.68.44-4.49.98-6.76,2.45q-.81,2.05-1,4h-7c-.33,2.64-.66,5.28-1,8q-.77-.23-1.56-.47c-4.34-.94-8.8-.93-13.23-1.15q-3.21-.38-6.21-2.38v-4c-.66-.33-1.32-.66-2-1,.31-1.75.62-3.5.94-5.25.17-.97.35-1.95.53-2.95q.54-2.8,1.16-4.87c.76-3.91-.62-7.58-2.62-10.93-2.68-1.69-4.87-2.23-8-3-.33,1.65-.66,3.3-1,5q-3.47.99-7,2-.68-1.7-1.38-3.44-1.2-3.61-3.62-4.56c-.33-.99-.66-1.98-1-3-1.6-.44-3.21-.88-4.82-1.27-5.14-1.72-12-5.21-15.18-9.73.1-4.59,2.53-7.47,5.19-11.06,8.2-11.58,12.55-20.62,10.81-34.94-.87-3.37-2.21-6.03-4-9-.54-1-1.09-2-1.65-3.03-5.08-9.14-11-14.83-19.35-20.97-.72-.56-1.44-1.11-2.18-1.69-6.48-4.59-13.24-7-20.69-9.62-9.97-3.54-17.39-7.43-25.12-14.69-.66-.58-1.33-1.17-2.01-1.77-6.59-6.1-12.86-14.27-16.99-22.23,0-4.86.08-6.93,3.25-10.62.91-.78,1.81-1.57,2.75-2.38.75-.96,1.49-1.91,2.26-2.9,2.67-3.24,5.6-5.08,9.3-7.1.61-.34,1.22-.68,1.85-1.02,3.95-2.17,7.97-4.15,12.03-6.1,7.46-3.67,12.47-8.39,17.56-14.88Z"/><path id="Kasba" class="cls-9" d="M522.37,611.08c1.67.31,3.34.65,5,1,11.13,1.18,22.23,1.05,33.4.87,1.27-.01,2.54-.02,3.84-.03,1.13-.02,2.26-.03,3.43-.05,3.75.24,6.76,1.06,10.33,2.21.82,2.33,1.19,3.53.26,5.87-.37.66-.75,1.33-1.13,2.01-2.96,6.1-2.93,12.45-3.12,19.12q-4.75,1.12-7,0c-.33,1.65-.66,3.3-1,5q-.8-.77-1.62-1.56c-3.16-1.91-4.85-1.17-8.38-.44q-.13,1.37-.26,2.77c-.14,1.19-.28,2.38-.43,3.6-.13,1.18-.26,2.37-.39,3.59q-.93,3.04-3.51,4.45-1.2.29-2.42.59c-.03,1.4-.05,2.79-.06,4.19-.01.78-.02,1.55-.04,2.36q.03,2.46.59,4.85c.6,3.1.64,6.01.63,9.17q0,1.67,0,3.38c-.11,2.55-.39,4.63-1.13,7.06q5.97-1.19,10.5-4.95,1.21-2.14,2.14-4.31,1.36-1.74,4-2.72c4.61-.03,7.57,1.62,11.55,3.79.71.37,1.42.74,2.15,1.12,3,1.57,5.83,3.18,8.66,5.07,2.81.43,5.12.23,8,0q.99-1.49,2-3,3,1,4,3c.99.33,1.98.66,3,1v-6h3c.33.99.66,1.98,1,3,.66-2.64,1.32-5.28,2-8,1.32-.33,2.64-.66,4-1,.33,1.32.66,2.64,1,4h3v2c.88-.59,1.76-1.18,2.67-1.79,1.17-.76,2.35-1.52,3.52-2.28.58-.39,1.16-.78,1.75-1.18,2.87-1.83,4.53-2.8,7.99-2.5.68.25,1.37.49,2.07.75q.19,2.31,0,5c-.49.44-.98.89-1.49,1.34-2.09,2.28-1.9,3.78-1.92,6.84q-.03,1.51-.07,3.06c0,1.05-.02,2.11-.03,3.19-.02,2.08-.05,4.16-.09,6.25,0,.92-.01,1.85-.02,2.8-.45,2.93-1.44,4.32-3.38,6.52,2.73-.39,3.77-.72,5.55-2.91,3.57-3.06,7.28-3.5,11.82-4.34.84-.17,1.68-.35,2.54-.52,4.38-.87,8.6-1.64,13.09-1.23.66.66,1.32,1.32,2,2q.99-1.49,2-3,2.16-.73,4.62-1.19c.82-.16,1.63-.32,2.48-.48q.94-.16,1.9-.33c.91,5.39,1.03,7.93-1,13,.11,2.74.54,5.29,1,8,.6.04,1.2.08,1.81.12,3.29,1.31,3.76,3.76,5.19,6.88l2,1q.4-.9.81-1.81c1.26-2.33,2-3.68,4.19-5.19q3.69-.19,7,0c.27-.64.54-1.28.81-1.94q1.19-2.06,4.19-3.06c-.04.76-.08,1.53-.12,2.31q-.1,2.91,2.12,5.69.12,2.69,0,5c.99.33,1.98.66,3,1,.1,4.14.17,8.29.22,12.43.02,1.41.05,2.81.08,4.22q.35,14.35-4.3,20.35c-2.75,4.13-1.98,7.26-1.68,12.09-.4,3.68-1.61,4.5-4.32,6.91-2.83,5.01-4.58,10.45-6,16h-2v-5c-.54-.21-1.07-.41-1.62-.62-4.09-2.37-7.74-5.41-9.22-9.99q-.93-2.6-3.49-3.31c-7.13-.91-14.16-1.26-21.35-1.32-.89,0-1.77-.02-2.68-.03-.83,0-1.66,0-2.52.01-.74,0-1.49,0-2.26,0q-2.1.1-3.86,2.26-2.33.15-5.23.02c-1.05-.03-2.1-.06-3.18-.09-2.21-.08-4.42-.17-6.62-.27q-6.72-.31-12.53,2.59c-5.99,6.77-9.2,13.02-11.43,21.75-.52,1.67-1.04,3.34-1.56,5-1.25,4.15-2.12,8.3-2.89,12.57-.54,2.43-1.33,4.61-2.23,6.93-2.23,6.38-.84,12.27.67,18.68,1.11,4.93,1.67,9.85,2.14,14.88.09.87.17,1.73.26,2.62.21,2.1.41,4.21.61,6.31.76-.15,1.51-.3,2.29-.46,5.02-.74,10.03-.99,15.09-1.26,2.24-.13,4.48-.26,6.72-.39,3.52-.2,7.04-.4,10.56-.59,3.41-.19,6.81-.39,10.22-.58,1.05-.06,2.11-.11,3.19-.17.98-.06,1.96-.11,2.97-.17q1.29-.07,2.61-.15,2.34-.16,4.53-.84.9-.19,1.81-.39,1.89,1.4,3.81,3.38c3.78,3.57,6.03,4.52,11.19,4.62-.45,1.01-.91,2.02-1.38,3.06-2.05,5.38-2.55,10.96-3.2,16.64q-.43,3.29-1.43,6.29c-.05,2.86-.05,5.7,0,8.56q.13,8.17-1,10.44c1.32.66,2.64,1.32,4,2v2h-3c.66,1.65,1.32,3.3,2,5-.97.25-1.94.49-2.94.75-1.01.41-2.02.83-3.06,1.25q-.73,2.02-1,4c-3.5,1.17-6.33,1.13-10,1-.66-.33-1.32-.66-2-1q.86-8.57,3-12c-1.03-.08-2.06-.17-3.12-.25-4.4-.85-6.36-2.09-9.88-4.75l-1,2q-1-.13-2.01-.25-5.43-.71-10.8-.06-2.19.31-4.81-1.31-2.38-2.38-3.75-5.06-.8-1.14-1.62-2.31c-1.15-.12-2.31-.25-3.5-.38q-1.73-.31-3.5-.62-1.81-3.44-3-7c-.66-.66-1.32-1.32-2-2-.99.33-1.98.66-3,1-1.49-.16-2.97-.37-4.44-.62q-3.6-.53-6.81,1c-.58.54-1.15,1.07-1.75,1.62q-2.75.69-5,1c-.33,1.32-.66,2.64-1,4q-7.75-1.88-10-3c-.33.99-.66,1.98-1,3h-2c-.33-1.98-.66-3.96-1-6h-9c.33-1.32.66-2.64,1-4-2.31-1.65-4.62-3.3-7-5,.33-.99.66-1.98,1-3,1.32.99,2.64,1.98,4,3l1-8c.99-.33,1.98-.66,3-1v-4c-1.98,1.32-3.96,2.64-6,4-2.27-3.09-3.05-4.42-2.69-8.31.23-.89.45-1.77.69-2.69h-2c-.33,1.32-.66,2.64-1,4h-2c-.18-3.95-.09-6.6,2-10h-3v-3h3v-2h-2c-.33-.66-.66-1.32-1-2h-3v4q-1,1-3.56,1.06c-.8-.02-1.61-.04-2.44-.06v-5h-2c.07-2.02.13-4.04.2-6.05q-.01-2.18-2.2-3.95c-.99.66-1.98,1.32-3,2q-2.5-2.31-5-5v-3h2v2c1.32-.99,2.64-1.98,4-3q-1.48-1.98-3-4c-.66.99-1.32,1.98-2,3q-2.62.69-5,1c-.66-1.32-1.32-2.64-2-4,1.32.33,2.64.66,4,1,.33-1.32.66-2.64,1-4,.57-.11,1.13-.22,1.71-.33.73-.16,1.47-.32,2.22-.48.73-.15,1.46-.3,2.21-.46q.91-.36,1.85-.73c.33-.99.66-1.98,1-3h2c-.33-.99-.66-1.98-1-3-.66-.33-1.32-.66-2-1v3c-.6-.19-1.2-.37-1.81-.56q-2.35-.66-5.19.56h-6c-.99.33-1.98.66-3,1q.5-2.97,1-6h-3v3c-2.56,1.28-4.16,1.03-7,.81-.89-.06-1.77-.11-2.69-.17q-2.31-.64-3.62-2.7c-.23-.64-.45-1.29-.69-1.95-1.65.33-3.3.66-5,1-.66-1.98-1.32-3.96-2-6,.74.02,1.49.04,2.25.06q2.87-.78,3.97-3.13c1-2.29,1.93-4.58,2.78-6.93-2.51,1.26-2.87,2.5-4,5q-1.98-.99-4-2c.33.99.66,1.98,1,3-1.32.99-2.64,1.98-4,3-.43-.47-.87-.95-1.31-1.44q-1.71-1.8-4.69-2.56c.51-4.47,2.18-6.58,5-10q1.24-2.68,2-5c-3.02,2.01-4.61,3.63-6,7-1.32-.33-2.64-.66-4-1-.33,1.65-.66,3.3-1,5h-3q-3-4.22-3-7h4c.66-2.31,1.32-4.62,2-7h-4c-.66,1.32-1.32,2.64-2,4h-2c-.33-1.98-.66-3.96-1-6,.99-.33,1.98-.66,3-1v-6c-.66-.33-1.32-.66-2-1-.66,1.65-1.32,3.3-2,5-3.08-1.2-6.06-2.48-9-4v-3c1.32-.33,2.64-.66,4-1,.33-3.96.66-7.92,1-12h4v-5c-.74.62-1.49,1.24-2.25,1.88-3.95,3.05-5.69,4.12-10.75,4.12.68-3.12,1.74-5.85,3.06-8.75q.54-1.2,1.1-2.42c.28-.6.55-1.21.84-1.83-2.31.33-4.62.66-7,1-.33,1.65-.66,3.3-1,5-1.65.33-3.3.66-5,1-1.01-3.23-1.2-4.56.25-7.69q1.75-2.31,4.75-4.31c.33-.99.66-1.98,1-3-4.49,1.37-6.17,3.35-9,7-2.68,1.71-3.76,2-7,2-1.35-2.71-1.07-5.01-1-8h6c2.35-3.53,2.41-4.84,2-9q-1.4-3.3-3-6c-1.65,2.31-3.3,4.62-5,7-.99-.33-1.98-.66-3-1-2.46-5.28-3.36-9.22-3-15q1.98-.5,4-1c-.62-.72-1.24-1.44-1.88-2.19-3.77-4.99-4.37-8.57-4.12-14.81.76.5,1.53.99,2.31,1.5q2.61,1.74,5.69,1.5c-.16-.53-.33-1.06-.5-1.61-.62-2.93-.6-5.65-.57-8.64,0-1.08.02-2.16.03-3.27.01-.82.02-1.64.04-2.48q2-1,3.78-.48c.71.28,1.43.56,2.16.85,5.29,1.89,10.48,2.32,16.06,2.62.33-1.32.66-2.64,1-4q1.86-.31,3.75-.62c4.68-1.14,5.65-3.39,8.25-7.38,4.8-2.87,9.53-3.34,15-3q.15-1.39.31-2.81c.72-3.33,1.18-4.08,3.69-6.19,1.99-2.99,2.94-5.6,4-9h2v-4c-2.64.33-5.28.66-8,1v-2c-1.11-.23-2.23-.45-3.38-.69q-3.62-1.31-4.88-3.88c-.25-.8-.49-1.61-.75-2.44-.99-.33-1.98-.66-3-1-.12-1.11-.25-2.23-.38-3.38q-.27-3.66-2.62-5.62-.2-2.16-.12-4.62c.02-.82.04-1.63.05-2.48.02-.63.05-1.25.07-1.9.76.12,1.52.24,2.31.36,6.99.87,12.86,1.09,18.69-3.36q1.21-2.61,1-5c2.57,1.03,5.14,2.06,7.69,3.12q2.21.99,4.31.88c-.08-1.14-.16-2.27-.25-3.44,0-5.16,1.88-8.97,4.18-13.5.37-.77.75-1.53,1.13-2.32q2.72-5.52,3.93-6.74Z"/><path id="Sadar" class="cls-8" d="M548.56,326.33q1.6.13,3.23.27c.85.16,1.7.32,2.58.48.33.66.66,1.32,1,2q1.93.75,4,1c.66-.33,1.32-.66,2-1,.33.66.66,1.32,1,2,4.13.24,7.11-.68,11-2q6.26-1.19,8.76-.55c3.15.78,6.26.91,9.49,1.12,1.26.08,2.53.17,3.83.25.96.06,1.93.12,2.92.18q4.53,16.18,2,22.5c-.33.5-.66.99-1,1.5h3c.99,3.63,1.98,7.26,3,11h3v3h2c1.46,2.65,2,3.89,2,7,.99.33,1.98.66,3,1v4h2c.33-.66.66-1.32,1-2v4h5q-.88,6.75-2,9c-1.32-.66-2.64-1.32-4-2,.66-1.65,1.32-3.3,2-5-.95.17-1.9.33-2.88.5q-3.12.5-5.12.5v2c-3.63-.99-7.26-1.98-11-3-.66.99-1.32,1.98-2,3h-4c-.33-.66-.66-1.32-1-2-.19.57-.39,1.13-.59,1.71-.26.73-.52,1.47-.79,2.22-.26.73-.51,1.46-.77,2.21q-.85,1.85-2.85,2.85-1.13,2.02-2,4c-.99-.33-1.98-.66-3-1q-.69-2.06-1-4c-1.28-.21-2.56-.41-3.88-.62-4.9-1.07-8.59-3.21-12.77-5.94-2.39-1.45-4.74-2.47-7.36-3.44q-.11.84-.23,1.7c-1.05,3.13-2.87,4.81-5.15,7.18-3.37,3.5-5.62,6.69-7.62,11.12,3.3.66,6.6,1.32,10,2q.99-1.98,2-4c3.34.56,6.03,1.35,9,3-.49,3.13-1.32,5.8-2.56,8.69-1.86,4.82-1.74,9.22-1.44,14.31,0,.76,0,1.52-.01,2.31q0,2.4,1.01,5.69c2.31,1.65,4.22,2.19,7,3v4c2.13-.14,4.25-.29,6.38-.44,1.18-.08,2.37-.16,3.59-.25q2.95-.13,5.04-1.32c4.56,1.83,8.03,4.44,10,9,.01,6.27-.46,12.7-4,18-.94,7.5-.3,12.81,4,19v2c.99.33,1.98.66,3,1v2c.6.26,1.2.52,1.82.79,2.33,1.3,3.44,2.49,5.05,4.59,2,2.44,3.44,3.84,6.12,5.62,4.6,3.07,8.33,6.17,9.64,11.72.14.96.28,1.92.42,2.9.51,3.51.81,5.19,2.81,8.19,3.86,2.7,7.94,4.61,12.18,6.66,5.26,2.73,8.81,5.6,11.82,10.72,1.22,4.13,1.57,7.88,1.72,12.16.5,3.25,1.4,5.04,3.41,7.65q2.55,1.73,5.44,3.06c3.84,1.89,6.81,3.61,9.56,6.94v3c-1.09.54-2.19,1.07-3.31,1.62-3.76,2.15-5.17,4.25-6.69,8.38q-.7,2.74-1,5c.99.33,1.98.66,3,1q1.42,2.48,2.75,5.62c.45,1.02.9,2.05,1.36,3.1,1.08,3.97.99,6.31-.11,10.27-1.66,2.21-3.18,3.97-5.12,5.88-1.01,1.03-2.01,2.07-3.01,3.11-.49.51-.98,1.01-1.49,1.53-2.56,2.76-4.75,5.79-6.94,8.84-2.02,2.32-3.93,2.6-6.93,2.88-6.22.16-9.75-.12-14.51-4.24q.76-6.43,2.06-9.5c1.28-3.41,1.39-5.88.94-9.5-2.1-3.21-3.71-4.67-7.45-5.63q-4.9-.86-9.32.86c-1.51,2.18-1.66,3.59-1.79,6.21-.19,3.42-.9,5.53-2.44,8.56q-.34,4.66,1,9c.35,3.82.5,6.17-1.5,9.5-2.95,1.77-5.04,1.99-8.43,1.36-4.16-1.72-6.44-5.34-9.07-8.86q-7.57-10.98-19-16c-2.22-.07-4.44-.09-6.66-.06-1.27,0-2.54.02-3.85.02-2.63.03-5.26.05-7.89.08-17.58.11-33.98.03-48-12.11-3.7-4.19-4.99-7.25-4.98-12.86.07-.92.15-1.83.23-2.78q.34-2.32-.85-4.29c-.1-1.48-.13-2.96-.12-4.44,0-.78,0-1.56,0-2.37q.13-2.19,1.13-5.19h-2q-.49-2.48-1-5h-2c-1.11-9.76-1.61-17.04,3-26,3.21-6.62,3.03-12.48,2.44-19.67-.44-5.51-.58-10.88.56-16.33.33-.33.66-.66,1-1,.07-2.02.08-4.04.06-6.06,0-1.1-.02-2.21-.03-3.35-.01-.85-.02-1.71-.04-2.59-.99-.33-1.98-.66-3-1q-.74-1.96-1.31-4.38c-1.09-3.6-1.37-4.4-4.56-6.69q-4.03-1.26-8.12-.94c-1.72,1.11-3.29,2.3-4.86,3.61-6.49,4.21-12.99,4.86-20.51,5.32-10.98.88-19.88,2.65-27.62,11.06q-1.9,2.69-3,5c-2.47-1.15-4.05-2.05-6-4-.47-2.77-.84-5.46-1.12-8.25-.09-.75-.17-1.5-.26-2.28-.46-4.17-.81-8.27-.61-12.47l1-1c.1-1.81.13-3.62.12-5.44,0-.99,0-1.98,0-3q.04-2.56-1.13-4.57-.04-1.86.09-4.1c.04-.8.09-1.6.13-2.43.05-.84.1-1.67.16-2.54.04-.84.09-1.68.13-2.55q.36-6.26,1.49-7.39c3.67-.14,7.33-.04,11,0,.66-3.63,1.32-7.26,2-11h2c.05-.92.1-1.83.15-2.77.07-1.19.15-2.38.23-3.6.07-1.18.14-2.37.21-3.59q.41-3.04,2.41-5.04c2.19-.61,4.4-1.15,6.62-1.62,1.19-.26,2.38-.52,3.6-.79q1.37-.29,2.77-.59v-3c-.8-.78-1.61-1.57-2.44-2.38-2.66-2.73-3.25-3.92-3.56-7.62q1.98-.5,4-1-.81-2.19-3-2.69-2-1.31-2.94-4.75-.06-3.56,1.11-5.27c2.43-1.73,3.96-1.64,6.93-1.59.98,0,1.97.02,2.98.03,1.02.03,2.05.05,3.1.08q1.55.02,3.14.04c2.56.04,5.12.08,7.67.15,1.22-3.47,2.25-6.71,2.62-10.38q.19-1.79.38-3.62h-2c.33-2.31.66-4.62,1-7,.99-.33,1.98-.66,3-1q.19-1.58.38-3.19c.54-3.27,1.26-5.82,2.62-8.81-.99-.33-1.98-.66-3-1v-2c-.99-.33-1.98-.66-3-1-.33-3.3-.66-6.6-1-10h5v5h2q.5,1.98,1,4c4.7,1.06,9.1,2,13.94,2q3.06,0,6.06,2v-8c3.05-.98,4.95-.98,8,0,.33-1.65.66-3.3,1-5q9.75-3.64,15-3l2,2q2.07.64,4,1,.5,3.47,1,7h2c.14-1.11.29-2.23.44-3.38q.56-3.62,1.56-5.62h4q-.49-3.47-1-7c3.52-2.22,6.1-2.13,10.19-1.75Z"/><path id="Bancharampur" class="cls-3" d="M134.62,613.64c7.99.88,16.28,1.7,23.75-1.56h3c.12.71.24,1.42.37,2.15.17.92.34,1.84.51,2.79.16.92.32,1.83.49,2.78q.31,1.13.63,2.29l2,1c.65,1.46,1.25,2.94,1.81,4.44q1.56,3.81,4.94,6.12c.74.14,1.49.29,2.25.44q-1,3-3,4c-.03,1.94-.05,3.87-.06,5.81q-.02,1.62-.04,3.27-.04,2.98,1.1,5.92.57,7.17-1.62,10.38c-2.7,1.85-5.23,2.77-8.38,3.62.39,2.72,1.07,4.09,2.75,6.31q2.1,1.94,4.62,1.62c3.55-1.26,4.76-3.12,7.01-6.12q9.18-11.75,15.62-12.81c2.16-.12,4.33-.18,6.5-.19,1.12-.01,2.25-.03,3.41-.04,2.96.22,4.6.68,7.09,2.23.18,4.67-.25,7.73-2,12-1.68,6.76-2.93,14.04-2,21q1.79,2.21,4.21,2.27c4.83-.03,8.32-.35,12.79-2.27q2.81.38,5,1c1.21,4.67,1.09,9.21,1,14,.66.33,1.32.66,2,1q.34,1.82.5,4.12c.27,3.12.7,5.52,1.62,8.56.96,3.63.93,5.73-.12,9.31-2.08,2.92-4.62,3.95-8,5q-2.81.12-5,0v7h2c6.65,14.37,7.31,28.72,7.01,44.36-.07,4.06.05,7.66.99,11.64.87,7.33-.09,13.38-2.75,20.19-.25.66-.5,1.32-.76,2q-1.93,4.58-4.69,5.74c-.59.02-1.19.05-1.8.07v2h-2c-.33.99-.66,1.98-1,3q-1.93,1.42-4.31,2.75c-.78.45-1.56.9-2.36,1.36q-2.32.89-4.54.69-1.79-.8-3.04-3.36c-.25-.8-.5-1.61-.75-2.44-.66.16-1.32.33-2,.5-3.72.62-7.28,1.19-11,.5-.97-.82-1.94-1.65-2.94-2.5-3.66-2.99-5.35-3.06-9.9-2.8-2.88.4-5.44,1.3-8.16,2.3-2.33.38-4.66.72-7,1,.33.99.66,1.98,1,3-5.25-1.48-9.81-4.59-13-9-.66-3.76-.49-7.22,0-11h-2v2c-2.33.04-4.67.04-7,0-.33-.33-.66-.66-1-1-1.41-.13-2.83-.23-4.25-.31-4.32-.45-6.82-1.29-9.75-4.69q-.31-2.75,0-5c-.68-.21-1.36-.41-2.06-.62-2.75-1.29-4.15-2.4-6.31-4.44-3.51-3.17-5.95-3.75-10.62-3.94v4h-4c-.33.99-.66,1.98-1,3-.99.33-1.98.66-3,1-.7,1.11-1.4,2.23-2.12,3.38-2.64,3.95-5.38,4.89-9.89,6.02q-2.19.5-3.99,2.61.26,2.11.81,4.56c.8,6.6-1.44,11.35-4.27,17.16-2.4,5.1-3.42,9.63-2.54,15.28q.76,2.21,2,4c.91.27,1.81.54,2.75.81,5.13,1.87,8.06,5.72,10.4,10.57,1.74,5.35,1.66,11.24-.15,16.55-4.32,4.46-9,6.3-15.19,6.5-4.05-.2-6.81-.52-9.81-3.44-2.5-5.38-3.88-11.04-5.35-16.78q-.44-2.18-1.65-3.22c-3.74-.68-5.72.3-8.75,2.31-6.4,4.24-12.58,6.18-20.25,5.69-.46-1.81-.92-3.62-1.38-5.44q-.42-1.65-.84-3.32c-.64-2.66-1.2-5.31-1.72-7.99-1.64-7.47-5.32-14.4-11.47-19.08-8.45-7.07-12.74-18.52-13.94-29.24-.62-19.65,10.13-32.71,22.12-47.05,3.49-4.3,6.16-8.58,8.73-13.5,3.16-5.95,7.12-10.27,12-14.88,6.87-6.5,11.55-12.86,15.5-21.5.56-1.17,1.13-2.33,1.71-3.53,2.17-5.98,1.52-12.27,1.23-18.53-.05-1.3-.11-2.59-.16-3.93-.6-11.62-2.54-21.31-7.52-31.89-2.23-5.07-2.72-9.48-2.75-14.94,0-.71-.01-1.41-.02-2.14.12-5.01,1.32-8.56,3.52-13.05.39-.89.78-1.77,1.19-2.69,3.94-5.03,9.69-6.5,15.81-7.31,3.65-.2,7.3-.28,10.95-.35,1.06-.02,2.11-.05,3.2-.07,2.23-.05,4.46-.09,6.69-.14,3.39-.07,6.77-.14,10.16-.22,2.17-.04,4.35-.09,6.52-.13,1-.02,2-.05,3.03-.07,7.68-.13,15.1.54,22.7,1.55Z"/><path id="Akhaura" class="cls-4" d="M714.37,551.08l1,2-12,6c.12,3.93.24,7.87.37,11.8.06,1.99.12,3.99.18,5.99q.06,1.88.13,3.8c.04,1.16.07,2.31.11,3.51q.09,2.98,1.21,5.91,1.36.09,2.75.19c4.15,1.04,4.93,2.27,7.25,5.81.73,2.55,1.31,4.97,1.81,7.56,1.96,8.9,5.91,15.82,11.18,23.24,2.38,3.78,4.04,7.63,5.7,11.76.31.74.61,1.48.93,2.25q3.25,7.99,3.38,11.19-1.27,1.79-3.25,3.62c-5.61,5.85-9.21,12.73-13.14,19.75q-7.02,12.52-10.61,15.62h-2q.14.89.29,1.79c.67,4.76.91,7.81-1.29,12.21-.27,1.13-.54,2.27-.81,3.44-1.5,4.51-3.77,8.35-8.19,10.56q-1.13,2.02-2,4-1.58-.19-3.19-.38-3.67,0-5.39,1.71c-1.22,1.49-2.33,3.08-3.42,4.66q-3-1-5-4v-3c-1.65-.33-3.3-.66-5-1-.22-1.6-.43-3.21-.62-4.81q-.17-1.34-.35-2.71-.02-2.48,1.98-5.48.24-2.06.12-4.19c-.04-1.26-.08-2.52-.12-3.81-1.46.4-2.92.82-4.38,1.25q-1.22.35-2.46.7c-2.62,1.27-3.16,2.37-4.16,5.05-.66-.99-1.32-1.98-2-3-5.99.41-11.91,1.21-17.81,2.25-1.24.21-2.49.42-3.77.64-3.96,1.29-5.63,3.09-8.42,6.11q-2.31-.19-4-1,.73-.83,1.47-1.67c1.82-2.79,1.91-4.34,1.93-7.65q.03-1.52.07-3.06c.02-2.12.04-4.25.05-6.38q.03-1.51.07-3.06c0-.92.01-1.84.02-2.8.46-2.83,1.31-3.51,3.38-5.39q.25-2.63,0-5c-5.47.28-8.74,2.61-13.05,5.72q-1.95,1.28-3.95,1.28v-2h-3c-.33-1.32-.66-2.64-1-4q-1.49.5-3,1c-.66,3.3-1.32,6.6-2,10q-.99-.99-2-2v-3h-3v6q-1.94-.38-4-1l-1-2h-2c-.66.99-1.32,1.98-2,3-6.42.76-10.29-.65-15.75-3.88-1.29-.73-2.57-1.45-3.86-2.18-1.12-.64-2.24-1.28-3.39-1.95-2.73-1.51-3.77-1.99-6.94-2.12-4.07,1.49-4.74,3.59-6.78,7.25q-1.29,1.88-4.35,3.38-2.94.5-6.94.5c.16-.58.32-1.15.49-1.75.49-2.19.64-4.09.64-6.33,0-.75,0-1.5,0-2.27,0-.77,0-1.55-.01-2.34,0-.78,0-1.57.01-2.38q.36-3.77-1.14-6.94c-.07-1.52-.08-3.04-.06-4.56,0-.83.02-1.65.03-2.5.01-.64.02-1.28.04-1.93q1.2-.29,2.43-.59,1.27-.7,2.57-1.41.93-3.03,1.12-6.5t.88-6.5q3-2,5.5-1.75,2.5.75,5.5,2.75c.33-1.32.66-2.64,1-4h6c.01-.88.03-1.77.04-2.68.34-8.5,1.84-14.87,5.96-22.32,5.51,4.19,9.44,8.92,13.45,14.5,2.22,3.03,3.93,5.27,7.55,6.5,2.82.34,4.35.38,6.81-1.06,1.82-2.97,1.43-5.54,1.19-8.94-.33-.66-.66-1.32-1-2q-.35-6.31.99-8.95c1.14-2.32,1.27-3.99,1.39-6.55.31-2.95.61-4.48,2.06-7.12,4.16-2.23,8.09-1.53,12.56-.38,2.88,1.82,4.48,2.97,6,6,.43,5.55-.77,8.98-3,14q-.67,2.67,0,5c3.15,3.15,6.31,3.22,10.56,3.31,3.71-.02,6.31-.25,9.44-2.31q1.67-1.82,3.19-4c2.69-3.63,5.56-6.87,8.69-10.12,2.53-2.82,4.06-4.72,5.5-8.25-.58-5.63-2.72-10.65-5.38-15.62-.66-.33-1.32-.66-2-1-.51-5.31.69-7.87,4-12,2.66-2.42,3.35-3,7-3,.33-.66.66-1.32,1-2q1.24-.46,2.5-.94c.83-.35,1.65-.7,2.5-1.06,1.19-3.56,1.1-6.44,1.06-10.19,0-1.27-.02-2.54-.03-3.86-.01-.98-.02-1.95-.04-2.96,1.11.33,2.23.66,3.38,1q3.32,1.09,5.62,1c.66-1.32,1.32-2.64,2-4q4.75.88,7,2c7.52.68,13.94-.43,21-3Z"/><path id="Ashuganj" class="cls-1" d="M435.37,296.08c.54.75,1.08,1.5,1.63,2.27,2.55,2.94,4.87,4.51,8.24,6.42,1.01.58,2.02,1.16,3.05,1.76,2.98,1.5,5.88,2.58,9.07,3.55v3q1.49.5,3,1c1.65,2.6,2,3.86,2,7l3-2h4v-5c3.55,0,5.77.52,9,2,2.66,4.12,4.47,8.2,3.64,13.14-.51,2.3-1.07,4.58-1.64,6.86-.34,1.67-.68,3.33-1,5-.33-1.32-.66-2.64-1-4l-4,2q.19,4.06,1,8c.87.62,1.73,1.24,2.62,1.88q2.38,2.12,2.55,4.48c-.38,4.3-.75,7-3.18,10.64h-3c-.33,2.31-.66,4.62-1,7h2c.3,5.8-.15,8.79-3,14q-.98.03-1.99.06c-2.96.1-5.92.2-8.89.31-1.03.03-2.07.06-3.13.09-.99.04-1.97.08-2.99.12-.91.03-1.82.06-2.76.1q-2.45.12-4.25,2.32,0,3.53,1,7,1.94,1.51,4,2v2c-.99.66-1.98,1.32-3,2q1.92,5.31,6,9l-1,4c-.93.2-1.85.41-2.81.62-1.2.27-2.4.54-3.63.82-1.19.27-2.39.53-3.62.81q-2.81.45-3.94,1.75c-.4,2.18-.74,4.37-1.06,6.56-.18,1.2-.35,2.4-.54,3.63-.13.93-.27,1.85-.4,2.81h-2c-.06.63-.12,1.25-.18,1.9q-.13,1.23-.25,2.48t-.25,2.46q-.32,2.16-1.32,4.16h-26c-.33,3.96-.66,7.92-1,12-.96.06-1.91.12-2.89.18-7.71.5-15.41,1.06-23.11,1.82v2c-1.05.66-2.1,1.32-3.19,2-.59.37-1.18.74-1.79,1.12-2.58,1.12-4.23,1.28-7.02.88q-1.92-1.61-3.75-3.75c-3.42-3.66-6.41-5.61-11.07-7.36-.72-.29-1.44-.59-2.18-.89-.89-.34-1.78-.68-2.7-1.03-2.63-2.26-2.69-2.77-3.08-6.07-.11-1.69-.2-3.39-.28-5.08-.65-9.36-2.46-17.78-4.94-26.81-2.91-13.08.61-25.11,7.57-36.34,3.51-5.42,7.41-10.54,11.36-15.64,2.01-2.6,3.93-5.23,5.79-7.95,5.98-8.68,12.52-15.29,20.77-21.84,1.91-1.57,3.63-3.31,5.38-5.05,4.16-3.73,9.23-5.6,14.4-7.53,5.03-1.97,7.31-4.36,10.72-8.66q2.94-1.94,6-3.56c4.39-2.43,7.76-4.62,11-8.44Z"/></svg>