<?xml version="1.0" encoding="UTF-8"?>
<svg id="Layer_1" data-name="Layer 1" xmlns="http://www.w3.org/2000/svg" viewBox="0 0 1287.93 265.38">
  <defs>
    <style>
      .cls-1 {
        fill: #192333;
      }

      .cls-2 {
        fill: #2e3847;
      }

      .cls-3 {
        fill: #fdf5a2;
      }

      .cls-4 {
        fill: #c6cbd3;
      }

      .cls-5 {
        fill: #f9faf8;
      }

      .cls-6 {
        fill: #ebf4dd;
      }

      .cls-7 {
        fill: #9099a6;
      }

      .cls-8 {
        fill: #185264;
      }
    </style>
  </defs>
  <path class="cls-8" d="M868.78,144.9l-.03-59.1c.02-11.78-.9-29.99,1.74-40.77,2.49-10.44,7.81-19.99,15.37-27.61C900.29,2.84,912.2.04,931.7,0l158.17.05h41.35c6.48,0,19.95-.25,25.91.86,9.83,1.83,21.78,8.24,28.75,15.57,17.49,18.38,18.26,31.84,18.42,52.91.08,11.18-.54,102.76.55,105.46l.14.59c9.02-.04,18.9-.26,27.84-.02,12.57.3,19.43,5.11,26.41,15.29,3.29,6.77,3.16,8.32,3.61,15.65-.54,8.55-2.96,14.73-9.58,20.59-3.97,3.53-8.73,6.04-13.89,7.3-7.86,1.92-44.87,1.04-54.77,1-6.7,13.6-17.33,27.58-33.77,28.87-13.77,3.9-26.61-1.79-37.03-10.94-4.55-3.99-10.94-11.78-11.21-17.92h-78.8c-2.66,5.12-4.58,8.3-7.91,12.93-16.16,22.51-49.02,21.83-66.35.75-3.97-4.11-6.13-7.97-7.5-13.46l-1.41-.18c-27.34-.95-67.11,9.07-72.63-28.13l-.62-1.02c-2.53-.63-14.97-.38-18.4-.38l-39.74.09c.02-10.32-.04-20.64-.17-30.95-.53-8.95-.25-20.39-.14-29.46,3.56.03,15.52.46,17.84-.48h7.91s34.1-.09,34.1-.09Z"/>
  <path class="cls-7" d="M1155.17,177.68l.65-.84c4.53-2.77,41.57-1.48,49.17-1.38,9.02-.04,18.9-.26,27.84-.02,12.57.3,19.43,5.11,26.41,15.29,3.29,6.77,3.16,8.32,3.61,15.65-.54,8.55-2.96,14.73-9.58,20.59-3.97,3.53-8.73,6.04-13.89,7.3-7.86,1.92-44.87,1.04-54.77,1-6.7,13.6-17.33,27.58-33.77,28.87-13.77,3.9-26.61-1.79-37.03-10.94-4.55-3.99-10.94-11.78-11.21-17.92-.27-.69-.53-1.38-.77-2.08-7.65-21.97,6.02-47.86,27.69-55.37,11.62-2.52,14.66-1.96,25.65-.14Z"/>
  <path class="cls-1" d="M1155.17,177.68l.65-.84c4.53-2.77,41.57-1.48,49.17-1.38,9.02-.04,18.9-.26,27.84-.02,12.57.3,19.43,5.11,26.41,15.29,3.29,6.77,3.16,8.32,3.61,15.65-.54,8.55-2.96,14.73-9.58,20.59-3.97,3.53-8.73,6.04-13.89,7.3-7.86,1.92-44.87,1.04-54.77,1-.54-1.94,1.78-6.78,1.92-9.24,1.34-23.14-9.65-40.38-31.36-48.35Z"/>
  <path class="cls-4" d="M1102.6,235.27c2.79.16,2.36-.26,4.42,1.14,1.64,2.57,1.13,5.37,2.02,8.48,16.9,15.08,18.21,18.48,41.8,19.24-13.77,3.9-26.61-1.79-37.03-10.94-4.55-3.99-10.94-11.78-11.21-17.92Z"/>
  <path class="cls-1" d="M1138.69,183.2c20.42-2.52,39.04,11.93,41.66,32.34,2.62,20.41-11.74,39.1-32.13,41.82-20.53,2.74-39.38-11.74-42.02-32.3s11.93-39.33,32.49-41.87Z"/>
  <path class="cls-7" d="M968.84,177.85c9.74-1.97,17.43-2.56,27.32.06,22.13,8.34,31.84,27.67,29.17,50.48-.27,2.37-1.21,4.45-1.53,6.88-2.66,5.13-4.58,8.3-7.91,12.93-16.16,22.51-49.02,21.83-66.35.75-3.97-4.11-6.13-7.97-7.5-13.46l-1.41-.18.82-.86c-8.55-20.65,6.43-49.47,27.39-56.6Z"/>
  <path class="cls-4" d="M942.04,235.49c2.82-.48,2.46-.88,4.6.18,1.76,3.04,1.05,7.83,2.9,13.28-3.97-4.11-6.13-7.97-7.5-13.46Z"/>
  <path class="cls-1" d="M978.3,183.38c20.37-2.46,38.89,12.04,41.39,32.41,2.51,20.37-11.94,38.93-32.3,41.48-20.43,2.57-39.06-11.95-41.57-32.39-2.52-20.44,12.04-39.04,32.48-41.51Z"/>
  <path class="cls-1" d="M996.16,177.91c1.82-2.03,4.5-2.21,7.12-2.26,22.95-.48,47.62-.22,70.47-.22,8.14,0,49.27-.55,54.12.83.41.37,1.35,1.17,1.65,1.55-21.67,7.52-35.34,33.4-27.69,55.37.24.7.5,1.39.77,2.08h-78.8c.32-2.43,1.26-4.51,1.53-6.88,2.67-22.81-7.04-42.14-29.17-50.48Z"/>
  <path class="cls-1" d="M892.22,176.09c1.68.28,8.09-.67,10.62-.67,20.46.04,41.19-1.07,61.6.17,1.9.12,3.17.84,4.4,2.25-20.96,7.13-35.94,35.95-27.39,56.6l-.82.86c-27.34-.95-67.11,9.07-72.63-28.13.27-7.07.69-9.46,3.52-16.04,5.1-8.19,11.18-13.17,20.71-15.05Z"/>
  <path class="cls-5" d="M868.66,174.98c5.61.02,18.67-.15,23.56,1.11-9.53,1.88-15.61,6.86-20.71,15.05-2.83,6.59-3.25,8.97-3.52,16.04l-.62-1.02c-2.53-.63-14.97-.38-18.4-.38l-39.74.09c.02-10.32-.04-20.64-.17-30.95h8.02c17.12,0,34.47-.15,51.57.05Z"/>
  <path class="cls-4" d="M809.07,174.93h8.02c-1.08,2.47-.57,12.56-.55,16.06,17.62.31,37.39.53,54.98.15-2.83,6.59-3.25,8.97-3.52,16.04l-.62-1.02c-2.53-.63-14.97-.38-18.4-.38l-39.74.09c.02-10.32-.04-20.64-.17-30.95Z"/>
  <path class="cls-2" d="M826.78,144.98h7.91c11.46.4,22.88-.17,34.15.15-.1,9.68-.4,20.23-.17,29.84-17.1-.2-34.45-.06-51.57-.05h-8.02c-.53-8.95-.25-20.39-.14-29.46,3.56.03,15.52.46,17.84-.48Z"/>
  <path class="cls-3" d="M1105.04,29.96c7.88-.53,21.1-.11,29.28-.19,8.48-.08,26.25-.57,33.79.81,4.12.75,8.02,2.41,11.42,4.87,10.41,7.42,13.48,18.97,12.9,31.17-.44,9.17.95,20.26-1.04,29.12-.93,4.14-2.73,8.04-5.27,11.43-4.82,6.45-10.68,9.67-18.52,10.83-18.72,1.45-40.27-.03-59.22.38-5.29.11-11.67-1.96-16.15-4.88-6.3-4.16-10.68-10.68-12.15-18.09-1.31-6.32-1.4-34.78-.24-41.1.73-4.06,2.3-7.92,4.6-11.34,5.05-7.53,11.92-11.24,20.6-13Z"/>
  <path class="cls-8" d="M40.39,145.42c0-11.25-.8-44.63,1.5-53.78,1.62-6.28,4.66-12.1,8.89-17.02,7.69-9.06,19.1-15,30.85-15.43,17.75-.64,36.25-.38,54.03-.35l103.7.19,79.94.02c9.84,0,31.91-.58,40.68.6,7.76,1.08,15.05,4.37,21,9.47,23.34,19.86,13.64,48.23,15.95,75.1l.06.66c19.67.15,40.51-.3,59.98.2,0,9.46.31,20.52.01,29.82-.09,5.42-.13,10.85-.13,16.27v14.55c-19.15.35-40.49.46-59.62.04-.04,3.17.1,7.91-.63,10.86l-.04,18.75c-21.62-.01-45.27.46-66.73-.17-5.77,19.18-23.41,34.44-44.34,28.3-12.06-3.23-20.66-9.45-25.03-21.29-.81-2.2-1.81-5.56-3.39-7.03-9.14.5-21.28.18-30.62.18-14.98.09-29.95.05-44.93-.14-2.01,2.09-4.02,6.94-5.42,9.7-13.2,26.1-48.83,26.79-63.09,1.15-2.93-5-2.29-7.51-4.11-10.79l-68.17.06-.12-8.86c-1-3.52-.69-16.22-.68-20.57l-39.74-.02-.2-14.79c9.57-.46,20.63-.34,30.32-.45l-.1-45.33,10.17.12Z"/>
  <path class="cls-7" d="M115.69,205.12c5.13-4.61,9.74-9.15,16.27-11.75,15.76-6.26,31,.63,42.05,12.19,5.04,8.02,8.06,18.91,6.45,28.34l1.07,1.31c-2.01,2.09-4.02,6.94-5.42,9.7-13.2,26.1-48.83,26.79-63.09,1.15-2.93-5-2.29-7.51-4.11-10.79-2.84-8.95.24-23.28,6.77-30.15Z"/>
  <path class="cls-1" d="M116.02,218.8c10.13-26.36,44.99-28.02,55.56-2.48,2.32,5.66,2.97,11.87,1.87,17.89l-.09.35c-3.2,9.24-8.15,16.08-17.36,20.45-6.64,3.18-14.27,3.62-21.23,1.22-5.66-2.01-14.75-9.19-17.09-14.87.86-4.12-.1-18.39-1.64-22.56Z"/>
  <path class="cls-4" d="M173.44,234.21l.73.62-.09,1.42.68-.07,1.58-2.46c1.4.02,2.71,0,4.11.18l1.07,1.31c-2.01,2.09-4.02,6.94-5.42,9.7-13.2,26.1-48.83,26.79-63.09,1.15,11.26,2.65,13.88,16.62,29.92,16.12,15.75-.48,30.01-11.33,30.4-27.62l.09-.35Z"/>
  <path class="cls-2" d="M117.66,241.37c-4.26-7.82-3.68-14.41-1.64-22.56,1.54,4.17,2.5,18.44,1.64,22.56Z"/>
  <path class="cls-7" d="M264.96,204.98c19.46-18.49,38.84-19.09,57.81.64,5.89,9.14,8.04,17.93,6.52,28.85l.54.72c-5.77,19.18-23.41,34.44-44.34,28.3-12.06-3.23-20.66-9.45-25.03-21.29-.81-2.2-1.81-5.56-3.39-7.03-1.56-9.6,1.5-22.88,7.88-30.19Z"/>
  <path class="cls-1" d="M314.59,249.21c-11.62,11.57-30.4,11.55-42.01-.03-11.61-11.58-11.66-30.37-.12-42.02,11.54-11.65,30.32-11.77,42.01-.27,11.69,11.5,11.88,30.29.42,42.02-.1.1-.2.2-.3.3Z"/>
  <path class="cls-4" d="M314.89,248.91c4.82-2.66,11.22-3.82,11.1-9.79-.03-1.56.38-3.36,1.24-4.69l2.07.04.54.72c-5.77,19.18-23.41,34.44-44.34,28.3,7.63.49,16.49-.68,22.76-5.43,2.21-1.68,5.95-6.11,6.33-8.85.1-.1.2-.2.3-.3Z"/>
  <path class="cls-5" d="M397,144.87c19.67.15,40.51-.3,59.98.2,0,9.46.31,20.52.01,29.82-.09,5.42-.13,10.85-.13,16.27v14.55c-19.15.35-40.49.46-59.62.04-.04,3.17.1,7.91-.63,10.86-.18-3.5-.05-7.85-.04-11.42l-.03-29.89c.04-9.9-.09-20.63.46-30.43Z"/>
  <path class="cls-2" d="M397,144.87c19.67.15,40.51-.3,59.98.2,0,9.46.31,20.52.01,29.82-8.38-.02-55.34-.97-59.97.45l-.49-.04c.04-9.9-.09-20.63.46-30.43Z"/>
  <path class="cls-4" d="M396.54,175.31l.49.04c.18,5.15.25,10.31.23,15.47,19.54.63,39.99.36,59.6.35v14.55c-19.15.35-40.49.46-59.62.04-.04,3.17.1,7.91-.63,10.86-.18-3.5-.05-7.85-.04-11.42l-.03-29.89Z"/>
  <path class="cls-2" d="M174.01,205.57c8.43-1.03,23.91-.56,33.07-.55l57.88-.04c-6.39,7.32-9.45,20.6-7.88,30.19-9.14.5-21.28.18-30.62.18-14.98.09-29.95.05-44.93-.14l-1.07-1.31c1.61-9.42-1.41-20.31-6.45-28.34Z"/>
  <path class="cls-2" d="M40.59,205.46c21.93-1.16,52.56-.63,75.1-.33-6.53,6.87-9.62,21.2-6.77,30.15l-68.17.06-.12-8.86c.3-6.37.02-14.52-.03-21.01Z"/>
  <path class="cls-2" d="M322.78,205.62c3.95-.84,19.6-.56,24.54-.55l49.25.13c0,3.57-.14,7.92.04,11.42l-.04,18.75c-21.62-.01-45.27.46-66.73-.17l-.54-.72c1.52-10.92-.62-19.72-6.52-28.85Z"/>
  <path class="cls-4" d="M30.22,145.31l10.17.12c0,19.74-.29,40.38.2,60.03.05,6.49.34,14.65.03,21.01-1-3.52-.69-16.22-.68-20.57l-39.74-.02-.2-14.79c9.57-.46,20.63-.34,30.32-.45l-.1-45.33Z"/>
  <path class="cls-3" d="M295.35,102.35c17.48-.16,34.96-.14,52.43.05.19,17.37-.06,34.76-.04,52.13,0,1.76-.14,3.51-.31,5.25-1.7,1.13-2.31.77-4.6.84-18.17.12-36.33.1-54.49-.06l-.07-36.4c0-6.13-.29-14.95.31-20.88,1.84-1.23,4.41-.91,6.77-.93Z"/>
  <path class="cls-3" d="M188.74,102.6c19.1-.46,39.22-.17,58.35-.02.29,19.36.33,38.73.14,58.09l-58.42-.12c-.7-18.2-.21-39.61-.07-57.95Z"/>
  <path class="cls-3" d="M88.58,102.6c18.74-.59,39.44-.17,58.24.04v57.8c-4.48.4-13.73.15-18.57.16l-39.67-.13v-57.87Z"/>
  <path class="cls-8" d="M456.98,145.08l-.13-27.88c-.06-17.95-1.24-30.77,12.76-44.96,12.03-12.19,22.78-13.23,38.64-13.28l180.59.04,51.29-.06c8.63-.03,24.11-.54,32.24.76,9.03,1.52,17.37,5.79,23.89,12.23,12.22,12.07,12.83,25.16,12.8,40.94l-.2,32.03,17.92.09c-2.32.94-14.29.51-17.84.48-.11,9.08-.39,20.51.14,29.46.13,10.32.19,20.64.17,30.95.03,4.04.34,26.49-.34,29.43l-65.95-.25c-3.49,16.94-18.39,29.1-35.69,29.11-17.29,0-32.21-12.14-35.71-29.08l-75.37-.08c-3.4,17.12-18.39,29.47-35.83,29.53-17.45.06-32.52-12.19-36.03-29.29l-67.27.1c-.29-9.56-.14-20.01-.19-29.64v-14.55c0-5.42.05-10.85.14-16.27.3-9.3-.02-20.35-.01-29.82Z"/>
  <path class="cls-7" d="M530.47,206.46c6.84-9.51,17.82-15.17,29.54-15.24,11.72-.07,22.76,5.47,29.71,14.9,6.12,8.3,8.46,18.79,6.45,28.9-3.4,17.12-18.39,29.47-35.83,29.53-17.45.06-32.52-12.19-36.03-29.29-2.06-10.04.17-20.48,6.16-28.8Z"/>
  <path class="cls-1" d="M554.91,198.61c16.25-2.95,31.81,7.86,34.71,24.12,2.91,16.26-7.95,31.79-24.22,34.65-16.2,2.85-31.65-7.96-34.54-24.15-2.89-16.2,7.86-31.68,24.05-34.62Z"/>
  <path class="cls-7" d="M671.31,221.56c2.48-14.5,13.43-26.08,27.76-29.38,14.33-3.3,29.23,2.34,37.8,14.3,5.92,8.26,8.12,18.63,6.07,28.59-3.49,16.94-18.39,29.1-35.69,29.11-17.29,0-32.21-12.14-35.71-29.08-.92-4.46-1-9.05-.23-13.54Z"/>
  <path class="cls-1" d="M680.14,215.38c5.89-12.77,19.9-19.68,33.61-16.6,13.72,3.08,23.41,15.33,23.28,29.39s-10.07,26.11-23.84,28.93c-13.77,2.82-27.64-4.37-33.28-17.25-3.42-7.82-3.34-16.72.24-24.47Z"/>
  <path class="cls-2" d="M679.9,239.84c-3.42-7.82-3.34-16.72.24-24.47.13,5.13.47,19.48-.24,24.47Z"/>
  <path class="cls-2" d="M589.72,206.12c8.6-1.33,78.3-2.24,86.04-.65.13,1.49-5.21,9.41-4.45,16.08-.77,4.49-.69,9.08.23,13.54l-75.37-.08c2.01-10.11-.34-20.6-6.45-28.9Z"/>
  <path class="cls-2" d="M456.85,205.72c4.2-1.63,71.56-1.09,73.62.74-5.99,8.32-8.22,18.76-6.16,28.8l-67.27.1c-.29-9.56-.14-20.01-.19-29.64Z"/>
  <path class="cls-2" d="M736.87,206.48c5.71-2.49,62.2-1.53,71.85-1.5-.03,7.91-.52,23.09.17,30.33l-65.95-.25c2.05-9.96-.15-20.32-6.07-28.59Z"/>
  <path class="cls-3" d="M708.26,102.35c18.08-.12,36.17-.11,54.25.04.02,7.13.79,55.98-.81,58.09l-2.81.17-55.17-.11c-.04-16.77-.82-40.96.14-57.14,1.57-1.27,2.09-.9,4.41-1.05Z"/>
  <path class="cls-3" d="M516.43,102.36c15.35-.05,30.69.04,46.04.27l.03,57.86-9.67.04c-16.07.1-32.14.09-48.21-.04l.06-57.93,11.76-.2Z"/>
  <path class="cls-3" d="M604.52,102.6c19.22-.22,38.44-.23,57.67-.02.07,19.31.04,38.62-.09,57.92l-57.62.04c-.11-19.32-.09-38.63.05-57.95Z"/>
  <path class="cls-4" d="M1214.84,145.31l14.94.05c-.02,5.3-.7,26.07.86,29.22l2.19.87c-8.94-.24-18.82-.02-27.84.02l-.14-.59c3.3-.06,6.64-.16,9.93-.18.04-9.7.2-19.7.06-29.38Z"/>
  <path class="cls-4" d="M1259.24,190.72c7.32.77,20.91.28,28.69.14l-.07,15.06c-7.68.05-17.52-.15-25.01.45-.45-7.33-.32-8.88-3.61-15.65Z"/>
  <g>
    <path class="cls-6" d="M907.6,64.92v-4.84c.12-1.59.48-3.01,1.08-4.25.6-1.24,1.34-2.31,2.22-3.23.88-.92,1.85-1.7,2.91-2.33,1.06-.64,2.1-1.17,3.12-1.58,1.02-.42,1.97-.73,2.85-.93.88-.2,1.58-.34,2.1-.42l.36-.06c1.6-.32,3.18-.48,4.74-.48,4.12,0,8.06,1,11.82,3.01,3.76,2.01,7.2,4.88,10.32,8.63l-6.3,5.16-2.7-2.7c-1.32-1.2-2.54-2.19-3.66-2.97-1.12-.78-2.2-1.39-3.24-1.83-1.04-.44-2.07-.75-3.09-.93-1.02-.18-2.07-.27-3.15-.27-1.32,0-2.6.14-3.84.42-1.24.28-2.37.66-3.39,1.14-1.02.48-1.88,1.01-2.58,1.59-.7.58-1.17,1.17-1.41,1.77v5.1h3.48v8.1h-3.42v29.22h-8.1v-29.22h-3.42v-8.1h3.3Z"/>
    <path class="cls-6" d="M957.94,88.14c-.36,2.28-1.03,4.29-2.02,6.03-.99,1.74-2.2,3.2-3.63,4.38-1.43,1.18-3.04,2.08-4.84,2.7-1.8.62-3.68.93-5.64.93-2.84,0-5.49-.58-7.95-1.74-2.46-1.16-4.65-2.74-6.57-4.74-1.92-2-3.51-4.35-4.77-7.05-1.26-2.7-2.09-5.61-2.49-8.73l7.98-1.2c.24,1.8.7,3.61,1.38,5.43.68,1.82,1.6,3.47,2.76,4.95,1.16,1.48,2.56,2.68,4.2,3.6,1.64.92,3.52,1.38,5.64,1.38.88,0,1.8-.18,2.76-.54.96-.36,1.83-.87,2.61-1.53s1.42-1.47,1.92-2.43c.5-.96.75-2.04.75-3.24,0-.96-.17-1.9-.51-2.82-.34-.92-.79-1.73-1.35-2.43-.56-.7-1.21-1.27-1.95-1.71-.74-.44-1.51-.66-2.31-.66-.36,0-.73.09-1.11.27-.38.18-.73.41-1.05.69-.32.28-.59.59-.81.93-.22.34-.33.65-.33.93,0,.44.2.85.6,1.23.4.38,1.05.57,1.96.57.4,0,.65-.02.77-.06l-4.61,6.12c-2.27-.56-3.91-1.52-4.91-2.88-1-1.36-1.5-3-1.5-4.92,0-1.68.43-3.27,1.29-4.77.86-1.5,2.15-2.77,3.87-3.81h-20.04v-8.1h42.11v8.1h-8.64c1.07.8,2.01,1.72,2.83,2.76.81,1.04,1.51,2.15,2.08,3.33.58,1.18,1,2.37,1.28,3.57.28,1.2.42,2.36.42,3.48,0,.72-.06,1.38-.18,1.98Z"/>
    <path class="cls-6" d="M998.86,88.14c-.36,2.28-1.03,4.29-2.02,6.03-.99,1.74-2.2,3.2-3.63,4.38-1.43,1.18-3.04,2.08-4.84,2.7-1.8.62-3.68.93-5.64.93-2.84,0-5.49-.58-7.95-1.74-2.46-1.16-4.65-2.74-6.57-4.74-1.92-2-3.51-4.35-4.77-7.05-1.26-2.7-2.09-5.61-2.49-8.73l7.98-1.2c.24,1.8.7,3.61,1.38,5.43.68,1.82,1.6,3.47,2.76,4.95,1.16,1.48,2.56,2.68,4.2,3.6,1.64.92,3.52,1.38,5.64,1.38.88,0,1.8-.18,2.76-.54.96-.36,1.83-.87,2.61-1.53s1.42-1.47,1.92-2.43c.5-.96.75-2.04.75-3.24,0-.96-.17-1.9-.51-2.82-.34-.92-.79-1.73-1.35-2.43-.56-.7-1.21-1.27-1.95-1.71-.74-.44-1.51-.66-2.31-.66-.36,0-.73.09-1.11.27-.38.18-.73.41-1.05.69-.32.28-.59.59-.81.93-.22.34-.33.65-.33.93,0,.44.2.85.6,1.23.4.38,1.05.57,1.96.57.4,0,.65-.02.77-.06l-4.61,6.12c-2.27-.56-3.91-1.52-4.91-2.88-1-1.36-1.5-3-1.5-4.92,0-1.68.43-3.27,1.29-4.77.86-1.5,2.15-2.77,3.87-3.81h-20.04v-8.1h42.11v8.1h-8.64c1.07.8,2.01,1.72,2.83,2.76.81,1.04,1.51,2.15,2.08,3.33.58,1.18,1,2.37,1.28,3.57.28,1.2.42,2.36.42,3.48,0,.72-.06,1.38-.18,1.98Z"/>
    <path class="cls-6" d="M1003.3,73.02h-3.42v-8.1h14.94v8.1h-3.42v29.22h-8.1v-29.22Z"/>
    <path class="cls-6" d="M1052.37,73.02h-3.42v29.22h-8.1v-12.54c-.56-.8-1.09-1.44-1.59-1.92s-1.03-.72-1.59-.72c-.04,0-.17.03-.39.09-.22.06-.46.15-.72.27-.26.12-.49.27-.69.45-.2.18-.3.41-.3.69,0,1.68-.32,3.31-.96,4.89-.64,1.58-1.49,2.97-2.55,4.17-1.06,1.2-2.26,2.16-3.6,2.88-1.34.72-2.69,1.08-4.05,1.08-2.32,0-4.3-.65-5.94-1.95-1.64-1.3-2.82-2.97-3.54-5.01l5.28-5.46c.52,1.12,1.12,2.02,1.8,2.7.68.68,1.42,1.02,2.22,1.02,1.04,0,1.84-.45,2.4-1.35.56-.9.84-1.83.84-2.79,0-1.12-.2-2.04-.6-2.76-.4-.72-.95-1.3-1.65-1.74-.7-.44-1.52-.79-2.46-1.05-.94-.26-1.97-.47-3.09-.63l-2.1-.42,3.6-9.12h-7.56v-8.1h38.76v8.1ZM1040.85,79.38v-6.36h-10.98l-1.38,3.54c.68.32,1.44.84,2.28,1.56.84.72,1.52,1.42,2.04,2.1,1.64-.92,3.26-1.38,4.86-1.38,1.04,0,2.1.18,3.18.54Z"/>
  </g>
</svg>